<svg width="224" height="224" viewBox="0 0 224 224" 
     fill="none" 
     version="1.2" 
     baseProfile="tiny-ps" 
     xmlns="http://www.w3.org/2000/svg">
  <title>Rise Social</title>
  <rect width="224" height="224" fill="#FF8E4F"/>
  <path d="M82.2455 44.3486C82.2455 43.0155 82.6518 42.8366 93.1323 39.5416C100.177 37.3268 102.761 36.7761 103.352 37.3614C103.788 37.7926 106.066 44.3652 108.415 51.9667C110.763 59.5682 112.754 65.8637 112.841 65.957C112.927 66.0496 114.94 59.8301 117.313 52.136C119.687 44.4412 121.997 37.7587 122.446 37.2854C123.093 36.6026 125.319 37.067 133.216 39.5313C138.691 41.2395 143.252 42.6375 143.353 42.6375C144.061 42.6375 142.96 46.9587 139.047 59.5261C136.579 67.4552 134.653 74.0353 134.766 74.15C134.881 74.264 140.851 70.1827 148.034 65.0807C155.218 59.978 161.56 55.8027 162.128 55.8027C162.696 55.802 165.894 59.7016 169.234 64.4677C174.124 71.4446 175.149 73.3242 174.497 74.1127C174.051 74.6517 168.064 79.0634 161.193 83.9159L148.7 92.7385L163.85 93.0841L179 93.4296V104.832V116.234L112.965 116.41C64.7443 116.539 46.6777 116.377 45.9945 115.808C44.7378 114.761 44.64 95.1627 45.8851 93.9133C46.4814 93.3149 51.2923 93.0841 63.1927 93.0841H79.6734L65.9818 83.37C58.4507 78.0268 52.3218 73.2717 52.3611 72.8025C52.4616 71.6077 64.2567 55.0764 65.0094 55.0764C65.3475 55.0764 71.1156 58.9684 77.8264 63.7256C84.5366 68.4827 90.1421 72.26 90.2819 72.1197C90.4224 71.9794 88.6712 65.8844 86.3911 58.5759C84.111 51.2674 82.2455 44.8648 82.2455 44.3486Z" fill="white"/>
  <path d="M52.6826 152.436C49.5431 146.582 46.2287 137.469 46.7459 136.116C47.0041 135.439 50.9445 135.238 63.9241 135.238H80.767L82.5698 139.189C88.2215 151.578 98.7096 158.407 113.365 159.241C125.691 159.943 135.348 156.596 142.182 149.252C144.252 147.028 146.255 144.688 146.634 144.052C147.274 142.978 148.359 143.013 162.049 144.551C170.149 145.461 177.055 146.485 177.396 146.828C178.427 147.862 174.727 158.271 171.724 162.785C163.556 175.058 147.574 183.804 128.591 186.391C119.668 187.606 102.93 186.926 95.4309 185.043C76.0965 180.188 61.6584 169.175 52.6826 152.436Z" fill="white"/>
</svg>