<svg xmlns="http://www.w3.org/2000/svg" width="52" height="48" viewBox="0 0 52 48" fill="none"><path d="M24.7688 20.2566C27.0321 20.2566 28.8668 18.4211 28.8668 16.157C28.8668 13.8929 27.0321 12.0575 24.7688 12.0575C22.5056 12.0575 20.6709 13.8929 20.6709 16.157C20.6709 18.4211 22.5056 20.2566 24.7688 20.2566Z" stroke="#148160" stroke-width="2" stroke-miterlimit="10" stroke-linecap="round" stroke-linejoin="round"></path><path d="M18.2319 29.7059V26.8157C18.2319 21.8963 21.2234 20.2565 24.133 20.2565H25.4443C28.3334 20.2565 31.3453 21.8963 31.3453 26.8157V29.7059" stroke="#148160" stroke-width="2" stroke-miterlimit="10" stroke-linecap="round" stroke-linejoin="round"></path><path d="M7.94621 12.0985C7.80278 12.078 7.65935 12.0575 7.51593 12.0575C5.26206 12.0575 3.43848 13.9023 3.43848 16.157C3.43848 17.8378 4.46296 19.2932 5.89724 19.9286" stroke="#148160" stroke-width="2" stroke-miterlimit="10" stroke-linecap="round" stroke-linejoin="round"></path><path d="M8.76611 20.0517C10.4258 19.5187 11.6347 18.0019 11.6347 16.1571C11.6347 15.0707 11.2044 14.1073 10.5282 13.3694" stroke="#148160" stroke-width="2" stroke-miterlimit="10" stroke-linecap="round" stroke-linejoin="round"></path><path d="M14.1139 29.7061V26.8159C14.1139 22.2244 11.4708 20.4821 8.76611 20.2771" stroke="#148160" stroke-width="2" stroke-miterlimit="10" stroke-linecap="round" stroke-linejoin="round"></path><path d="M5.89753 20.3181C3.3568 20.6666 1.00049 22.4499 1.00049 26.8159V29.7061" stroke="#148160" stroke-width="2" stroke-miterlimit="10" stroke-linecap="round" stroke-linejoin="round"></path><path d="M40.7709 20.0517C39.1112 19.5187 37.9023 18.0019 37.9023 16.1571C37.9023 15.0707 38.3326 14.1073 39.0088 13.3694" stroke="#148160" stroke-width="2" stroke-miterlimit="10" stroke-linecap="round" stroke-linejoin="round"></path><path d="M35.4233 29.7061V26.8159C35.4233 22.2244 38.0665 20.4821 40.7711 20.2771" stroke="#148160" stroke-width="2" stroke-miterlimit="10" stroke-linecap="round" stroke-linejoin="round"></path><path d="M43.7422 20.2566C43.7422 20.2361 43.7422 20.195 43.7422 20.1744" stroke="#148160" stroke-width="2" stroke-miterlimit="10" stroke-linecap="round" stroke-linejoin="round"></path><path d="M7.9469 12.0985C6.73801 14.4557 6.00038 17.0999 5.87744 19.9286" stroke="#148160" stroke-width="2" stroke-miterlimit="10" stroke-linecap="round" stroke-linejoin="round"></path><path d="M41.6313 12.2419C42.8402 14.6401 43.5369 17.3253 43.6189 20.1745" stroke="#148160" stroke-width="2" stroke-miterlimit="10" stroke-linecap="round" stroke-linejoin="round"></path><path d="M7.9873 12.0985C11.1017 6.01067 17.4535 1.82915 24.7684 1.82915C32.1447 1.82915 38.5374 6.07216 41.6314 12.242" stroke="#148160" stroke-width="2" stroke-miterlimit="10" stroke-linecap="round" stroke-linejoin="round"></path><path d="M5.91748 20.3179C5.91748 20.4409 5.91748 20.5639 5.91748 20.6869C5.91748 31.0997 14.3592 39.5448 24.768 39.5448C35.1768 39.5448 43.6185 31.0997 43.6185 20.6869C43.6185 20.5434 43.6185 20.3999 43.598 20.2565" stroke="#148160" stroke-width="2" stroke-miterlimit="10" stroke-linecap="round" stroke-linejoin="round"></path><path d="M5.87744 20.318C5.87744 20.1745 5.87744 20.0515 5.89795 19.9081" stroke="#148160" stroke-width="2" stroke-miterlimit="10" stroke-linecap="round" stroke-linejoin="round"></path><path d="M8.74609 20.2772C8.74609 20.1952 8.7461 20.1132 8.7666 20.0518" stroke="#148160" stroke-width="2" stroke-miterlimit="10" stroke-linecap="round" stroke-linejoin="round"></path><path d="M36.4673 35.7529L46.077 45.3253C47.2039 46.4527 49.0275 46.4527 50.1544 45.3253C51.2814 44.198 51.2814 42.3942 50.1544 41.2668L40.5447 31.6944" stroke="#148160" stroke-width="2" stroke-miterlimit="10" stroke-linecap="round" stroke-linejoin="round"></path><path d="M41.5913 12.0985C41.7347 12.078 41.8782 12.0575 42.0216 12.0575C44.2755 12.0575 46.099 13.9023 46.099 16.157C46.099 17.8378 45.0746 19.2932 43.6403 19.9286" stroke="#148160" stroke-width="2" stroke-miterlimit="10" stroke-linecap="round" stroke-linejoin="round"></path><path d="M43.6396 20.3181C46.1804 20.6666 48.5367 22.4499 48.5367 26.8159V29.7061" stroke="#148160" stroke-width="2" stroke-miterlimit="10" stroke-linecap="round" stroke-linejoin="round"></path></svg>