<svg xmlns="http://www.w3.org/2000/svg" width="52" height="52" viewBox="0 0 52 52" fill="none"><path d="M12.84 33.0605C15.4559 33.0605 17.5765 30.9496 17.5765 28.3457C17.5765 25.7418 15.4559 23.6309 12.84 23.6309C10.2241 23.6309 8.10352 25.7418 8.10352 28.3457C8.10352 30.9496 10.2241 33.0605 12.84 33.0605Z" stroke="#148160" stroke-width="2" stroke-miterlimit="10" stroke-linecap="round" stroke-linejoin="round"></path><path d="M10.9302 39.6612L12.8389 44.7296C13.4045 46.2147 14.8183 47.2048 16.4207 47.2048H23.1367C24.2442 47.2048 25.1397 46.309 25.1397 45.201C25.1397 44.1874 24.3856 43.3387 23.3723 43.2208L18.1881 42.5843C17.8111 42.5372 17.4812 42.2779 17.3869 41.9007C17.0806 40.7456 16.3736 38.2703 15.6431 36.8559C14.7005 34.97 13.7579 33.0841 10.4353 33.0841C6.1701 33.0841 5.22751 35.9129 4.28492 39.6847C3.34233 43.4566 1.43359 51.0002 1.43359 51.0002" stroke="#148160" stroke-width="2" stroke-miterlimit="10" stroke-linecap="round" stroke-linejoin="round"></path><path d="M13.7818 46.2612L12.8628 50.976" stroke="#148160" stroke-width="2" stroke-miterlimit="10" stroke-linecap="round" stroke-linejoin="round"></path><path d="M19.4609 47.2044H49.6238" stroke="#148160" stroke-width="2" stroke-miterlimit="10" stroke-linecap="round" stroke-linejoin="round"></path><path d="M30.7468 10.4295C32.3216 10.4295 33.5982 9.163 33.5982 7.60066C33.5982 6.03832 32.3216 4.7718 30.7468 4.7718C29.1721 4.7718 27.8955 6.03832 27.8955 7.60066C27.8955 9.163 29.1721 10.4295 30.7468 10.4295Z" stroke="#148160" stroke-width="2" stroke-miterlimit="10" stroke-linecap="round" stroke-linejoin="round"></path><path d="M26.0591 17.03V15.9692C26.0591 11.8202 28.227 10.4294 30.3007 10.4294H31.2433C33.317 10.4294 35.485 11.8202 35.485 15.9692V17.03" stroke="#148160" stroke-width="2" stroke-miterlimit="10" stroke-linecap="round" stroke-linejoin="round"></path><path d="M14.7461 12.3153V3.82867C14.7461 2.2728 16.0186 0.999809 17.5739 0.999809H29.8275" stroke="#148160" stroke-width="2" stroke-miterlimit="10" stroke-linecap="round" stroke-linejoin="round"></path><path d="M14.7461 12.3153V17.973C14.7461 19.5289 16.0186 20.8019 17.5739 20.8019H35.483L41.1386 26.4596V20.8019H44.9089C46.4642 20.8019 47.7367 19.5289 47.7367 17.973V3.82867C47.7367 2.2728 46.4642 0.999809 44.9089 0.999809H29.8275" stroke="#148160" stroke-width="2" stroke-miterlimit="10" stroke-linecap="round" stroke-linejoin="round"></path><path d="M27.9443 42.4901L32.6573 30.2317H50.5665L45.8535 42.4901H27.9443Z" stroke="#148160" stroke-width="2" stroke-miterlimit="10" stroke-linecap="round" stroke-linejoin="round"></path><path d="M36.4272 47.2048V42.49" stroke="#148160" stroke-width="2" stroke-miterlimit="10" stroke-linecap="round" stroke-linejoin="round"></path></svg>