<?xml version="1.0" encoding="UTF-8"?>
<svg fill="none" viewBox="0 0 1890 1890" xmlns="http://www.w3.org/2000/svg">
<path d="m944.68 482.37c275.29 0 493.53 209.63 493.53 462.32 0 252.69-218.24 462.32-493.53 462.32-275.29 0-493.52-209.63-493.52-462.32 0-252.69 218.23-462.32 493.52-462.32z" opacity=".05" stroke="#0EA5E9" stroke-width="96"/>
<path d="m944.69 287.69c389.38 1e-3 700.1 296.79 700.1 657 0 360.21-310.72 657-700.1 657-389.38 0-700.1-296.79-700.1-657 0-360.21 310.72-657 700.1-657z" opacity=".03" stroke="#0EA5E9" stroke-width="96"/>
<path d="m940.33 51.843c492.66-2.0139 894.05 396.06 896.45 889.2 2.41 493.14-395.09 894.48-887.74 896.49-492.66 2.02-894.05-396.06-896.45-889.2-2.4045-493.14 395.09-894.48 887.74-896.49z" opacity=".015" stroke="#0EA5E9" stroke-width="96"/>
</svg>
